<?xml version="1.0" encoding="UTF-8"?>
<svg width="128px" height="128px" viewBox="0 0 128 128" version="1.1" xmlns="http://www.w3.org/2000/svg" xmlns:xlink="http://www.w3.org/1999/xlink">
    <!-- Generator: Sketch 56.2 (81672) - https://sketch.com -->
    <title>Rectangle 2 Copy 2</title>
    <desc>Created with Sketch.</desc>
    <defs>
        <rect id="path-1" x="0" y="0" width="128" height="128"></rect>
        <filter x="-0.8%" y="-0.8%" width="101.6%" height="101.6%" filterUnits="objectBoundingBox" id="filter-3">
            <feGaussianBlur stdDeviation="1" in="SourceAlpha" result="shadowBlurInner1"></feGaussianBlur>
            <feOffset dx="0" dy="0" in="shadowBlurInner1" result="shadowOffsetInner1"></feOffset>
            <feComposite in="shadowOffsetInner1" in2="SourceAlpha" operator="arithmetic" k2="-1" k3="1" result="shadowInnerInner1"></feComposite>
            <feColorMatrix values="0 0 0 0 0   0 0 0 0 0   0 0 0 0 0  0 0 0 0.313920455 0" type="matrix" in="shadowInnerInner1"></feColorMatrix>
        </filter>
    </defs>
    <g id="Page-1" stroke="none" stroke-width="1" fill="none" fill-rule="evenodd">
        <g id="category" transform="translate(-168.000000, 0.000000)">
            <g id="Rectangle-2-Copy-2" transform="translate(168.000000, 0.000000)">
                <mask id="mask-2" fill="white">
                    <use xlink:href="#path-1"></use>
                </mask>
                <g id="Rectangle">
                    <use fill="#3EC2A4" fill-rule="evenodd" xlink:href="#path-1"></use>
                    <use fill="black" fill-opacity="1" filter="url(#filter-3)" xlink:href="#path-1"></use>
                </g>
                <g id="color-palette" mask="url(#mask-2)" fill="#FFFFFF" fill-rule="nonzero">
                    <g transform="translate(28.000000, 29.000000)" id="Shape">
                        <path d="M30.056332,70 L30.2273383,70 C43.0993291,69.9303162 54.5031657,61.642439 58.6029316,49.3776918 C58.9735244,48.2657707 58.7905334,47.0426183 58.1109876,46.0894283 C57.4371374,45.1363949 56.3435869,44.5731371 55.1803985,44.5799623 L51.7331779,44.5799623 C49.7388422,44.5776277 48.1226929,42.9531461 48.1203702,40.9485283 L48.1203702,38.5275724 C48.1226929,36.5229546 49.7388422,34.898473 51.7331779,34.8961384 L55.1819038,34.8961384 C56.3459048,34.8944659 57.4384857,34.3317411 58.1197186,33.3830409 C58.8012686,32.4440741 58.9855249,31.2304392 58.6136195,30.1298813 C57.7047415,27.3993772 56.4103284,24.8142746 54.7700437,22.4537865 L70.9412718,6.19994203 C71.854142,5.28268986 72.2108305,3.94559261 71.8769763,2.6923219 C71.5431221,1.43905119 70.5694456,0.460008657 69.3227213,0.123990172 C68.0759969,-0.212028313 66.7456319,0.146026451 65.8327618,1.06327869 L49.9508594,17.0264571 C39.9019473,8.15580334 25.2343198,7.01605542 13.9484281,14.2288884 C2.66253645,21.4417213 -2.5330371,35.2760755 1.19563087,48.1860083 C4.92429883,61.0959411 16.6823385,69.9831049 30.056332,70 L30.056332,70 Z M67.5365017,2.77489456 C67.7619879,2.54800116 68.067959,2.42051319 68.3870168,2.42051319 C68.7060746,2.42051319 69.0120457,2.54800116 69.2375319,2.77489456 C69.7072281,3.24800069 69.7072281,4.01400955 69.2375319,4.48711568 L49.6422654,24.1841648 L47.9397298,22.4719437 L67.5365017,2.77489456 Z M42.8291124,31.0312335 L41.1270284,29.3203742 L46.2358394,24.1834082 L47.9397298,25.8960833 L42.8291124,31.0312335 Z M39.0538789,30.6605246 L41.4958358,33.1150714 L40.673621,36.4207354 C40.3475278,37.7466992 39.3060102,38.7748565 37.9811761,39.0786425 L31.6629777,40.5440774 L33.1208961,34.1934559 C33.4230737,32.8617331 34.4459669,31.8147777 35.7651702,31.4869785 L39.0538789,30.6605246 Z M10.4524851,20.0705066 C20.74255,9.70757555 37.2597077,9.12656499 48.2453132,18.7410992 L45.3851738,21.6159844 L38.8101649,28.226556 L35.1823039,29.1381972 C32.9836997,29.6844443 31.2789761,31.4293893 30.7755818,33.6488921 L28.8829222,41.8866488 C28.7891584,42.2934866 28.910649,42.7201723 29.204354,43.0155453 C29.4980589,43.3109184 29.9224927,43.4332576 30.3272926,43.3392224 L38.5229467,41.4381667 C40.7310073,40.9321266 42.4669343,39.2186236 43.0103549,37.0087251 L43.9173201,33.3621602 L50.4939848,26.753253 L53.0380036,24.1961182 C54.432249,26.2702914 55.5396671,28.5252552 56.3298734,30.8991401 C56.4515976,31.2614619 56.3902727,31.6606613 56.1654907,31.9692026 C55.9391042,32.288727 55.572156,32.4774936 55.1819038,32.4751824 L51.7331779,32.4751824 C48.4092278,32.4789348 45.715565,35.1864852 45.7118318,38.5275724 L45.7118318,40.9485283 C45.715565,44.2896155 48.4092278,46.9971659 51.7331779,47.0009183 L55.1803985,47.0009183 C55.567212,46.9985995 55.930904,47.185815 56.1551039,47.5026614 C56.3856535,47.8219474 56.4469396,48.2341338 56.3193361,48.6072226 C52.547435,59.8906699 42.055797,67.5152696 30.2136397,67.579044 C30.1608024,67.579044 30.1093199,67.579044 30.0566331,67.579044 C18.8585761,67.579044 8.76209185,60.8017704 4.47173702,50.4048777 C0.181382196,40.0079851 2.54130773,28.037231 10.451883,20.0705066 L10.4524851,20.0705066 Z"></path>
                        <path d="M17,40.5 C17,38.0147186 15.209139,36 13,36 C10.790861,36 9,38.0147186 9,40.5 C9,42.9852814 10.790861,45 13,45 C15.208111,44.9972101 16.9975201,42.9841248 17,40.5 L17,40.5 Z M11,40.5 C11,39.2573593 11.8954305,38.25 13,38.25 C14.1045695,38.25 15,39.2573593 15,40.5 C15,41.7426407 14.1045695,42.75 13,42.75 C11.895973,42.7485277 11.0013087,41.7420303 11,40.5 L11,40.5 Z"></path>
                        <path d="M17.0001578,30 C18.0596282,30.0021355 19.0761898,29.5292548 19.824926,28.6859693 C21.1762145,27.1695186 21.3868263,24.7902383 20.32791,23.0037647 C19.2689936,21.2172912 17.2356226,20.5214363 15.471807,21.3419221 C13.7079915,22.1624078 12.7052296,24.2706007 13.077008,26.3767148 C13.4487864,28.4828289 15.0915067,30 17.0001578,30 L17.0001578,30 Z M15.5877112,23.9186581 C16.158972,23.2759629 17.0181165,23.0836918 17.7645213,23.4315018 C18.510926,23.7793118 18.997597,24.5987065 18.997597,25.507598 C18.997597,26.4164895 18.510926,27.2358842 17.7645213,27.5836942 C17.0181165,27.9315042 16.158972,27.7392331 15.5877112,27.0965379 C15.2116493,26.6760928 15.0001825,26.104268 15.0001825,25.5078087 C15.0001825,24.9113493 15.2116493,24.3395245 15.5877112,23.9190794 L15.5877112,23.9186581 Z"></path>
                        <path d="M43.0001578,58 C44.0596282,58.0021355 45.0761898,57.5292548 45.824926,56.6859693 C47.1762145,55.1695186 47.3868263,52.7902383 46.32791,51.0037647 C45.2689936,49.2172912 43.2356226,48.5214363 41.471807,49.3419221 C39.7079915,50.1624078 38.7052296,52.2706007 39.077008,54.3767148 C39.4487864,56.4828289 41.0915067,58 43.0001578,58 L43.0001578,58 Z M41.5877112,51.9186581 C42.158972,51.2759629 43.0181165,51.0836918 43.7645213,51.4315018 C44.510926,51.7793118 44.997597,52.5987065 44.997597,53.507598 C44.997597,54.4164895 44.510926,55.2358842 43.7645213,55.5836942 C43.0181165,55.9315042 42.158972,55.7392331 41.5877112,55.0965379 C41.2116493,54.6760928 41.0001825,54.104268 41.0001825,53.5078087 C41.0001825,52.9113493 41.2116493,52.3395245 41.5877112,51.9190794 L41.5877112,51.9186581 Z"></path>
                        <path d="M30,27 C32.209139,27 34,24.9852814 34,22.5 C34,20.0147186 32.209139,18 30,18 C27.790861,18 26,20.0147186 26,22.5 C26.0024799,24.9841248 27.791889,26.9972101 30,27 L30,27 Z M30,20.25 C31.1045695,20.25 32,21.2573593 32,22.5 C32,23.7426407 31.1045695,24.75 30,24.75 C28.8954305,24.75 28,23.7426407 28,22.5 C28.0013087,21.2579697 28.895973,20.2514723 30,20.25 L30,20.25 Z"></path>
                        <path d="M30,64 C32.209139,64 34,61.9852814 34,59.5 C34,57.0147186 32.209139,55 30,55 C27.790861,55 26,57.0147186 26,59.5 C26.0024799,61.9841248 27.791889,63.9972101 30,64 L30,64 Z M30,57.25 C31.1045695,57.25 32,58.2573593 32,59.5 C32,60.7426407 31.1045695,61.75 30,61.75 C28.8954305,61.75 28,60.7426407 28,59.5 C28.0013087,58.2579697 28.895973,57.2514723 30,57.25 L30,57.25 Z"></path>
                        <path d="M14.1715687,50.318047 C12.6094771,52.0754 12.6094771,54.9246322 14.1715687,56.6819852 C15.7336603,58.4393383 18.2663111,58.4393383 19.8284027,56.6819852 C20.8388765,55.545152 21.2334875,53.8882083 20.8635898,52.3353088 C20.4936921,50.7824093 19.4154818,49.5694763 18.0351103,49.15341 C16.6547388,48.7373437 15.1819174,49.1813544 14.1714437,50.3181876 L14.1715687,50.318047 Z M18.414288,55.0908249 C17.6334369,55.9684361 16.3680995,55.9679787 15.5877498,55.0898032 C14.8074002,54.2116278 14.8074002,52.7881232 15.5877498,51.9099477 C16.3680995,51.0317722 17.6334369,51.0313149 18.414288,51.9089261 C19.194056,52.7881701 19.194056,54.2115809 18.414288,55.0908249 L18.414288,55.0908249 Z"></path>
                    </g>
                </g>
            </g>
        </g>
    </g>
</svg>