<?xml version="1.0" encoding="UTF-8"?>
<svg width="128px" height="128px" viewBox="0 0 128 128" version="1.1" xmlns="http://www.w3.org/2000/svg" xmlns:xlink="http://www.w3.org/1999/xlink">
    <!-- Generator: Sketch 56.2 (81672) - https://sketch.com -->
    <title>Rectangle 2 Copy</title>
    <desc>Created with Sketch.</desc>
    <defs>
        <rect id="path-1" x="0" y="0" width="128" height="128"></rect>
        <filter x="-0.8%" y="-0.8%" width="101.6%" height="101.6%" filterUnits="objectBoundingBox" id="filter-3">
            <feGaussianBlur stdDeviation="1" in="SourceAlpha" result="shadowBlurInner1"></feGaussianBlur>
            <feOffset dx="0" dy="0" in="shadowBlurInner1" result="shadowOffsetInner1"></feOffset>
            <feComposite in="shadowOffsetInner1" in2="SourceAlpha" operator="arithmetic" k2="-1" k3="1" result="shadowInnerInner1"></feComposite>
            <feColorMatrix values="0 0 0 0 0   0 0 0 0 0   0 0 0 0 0  0 0 0 0.313920455 0" type="matrix" in="shadowInnerInner1"></feColorMatrix>
        </filter>
    </defs>
    <g id="Page-1" stroke="none" stroke-width="1" fill="none" fill-rule="evenodd">
        <g id="category">
            <g id="Rectangle-2-Copy">
                <mask id="mask-2" fill="white">
                    <use xlink:href="#path-1"></use>
                </mask>
                <g id="Rectangle">
                    <use fill="#EA752F" fill-rule="evenodd" xlink:href="#path-1"></use>
                    <use fill="black" fill-opacity="1" filter="url(#filter-3)" xlink:href="#path-1"></use>
                </g>
                <g id="save-file" mask="url(#mask-2)" fill="#FFFFFF" fill-rule="nonzero">
                    <g transform="translate(32.000000, 31.000000)">
                        <path d="M7.99321603,8 C7.44469593,8 7,8.4476 7,9 C7,9.5524 7.44469593,10 7.99321603,10 L28.006784,10 C28.5553041,10 29,9.5524 29,9 C29,8.4476 28.5553041,8 28.006784,8 L7.99321603,8 Z" id="Path"></path>
                        <path d="M29,16 C29,15.4476 28.5553041,15 28.006784,15 L7.99321603,15 C7.44469593,15 7,15.4476 7,16 C7,16.5524 7.44469593,17 7.99321603,17 L28.006784,17 C28.5553041,17 29,16.5524 29,16 Z" id="Path"></path>
                        <path d="M29,23 C29,22.4476 28.5553041,22 28.006784,22 L7.99321603,22 C7.44469593,22 7,22.4476 7,23 C7,23.5524 7.44469593,24 7.99321603,24 L28.006784,24 C28.5553041,24 29,23.5524 29,23 Z" id="Path-Copy"></path>
                        <path d="M55.0041163,57 L37.9958837,57 C37.4457575,57 37,57.4476 37,58 C37,58.5524 37.4457575,59 37.9958837,59 L55.0041163,59 C55.5542425,59 56,58.5524 56,58 C56,57.4476 55.5541097,57 55.0041163,57 Z" id="Path"></path>
                        <path d="M55.0041163,61 L37.9958837,61 C37.4457575,61 37,61.4476 37,62 C37,62.5524 37.4457575,63 37.9958837,63 L55.0041163,63 C55.5542425,63 56,62.5524 56,62 C56,61.4476 55.5541097,61 55.0041163,61 Z" id="Path"></path>
                        <path d="M62.065673,38.7626265 L57.0254876,33.8755935 C55.7777033,32.6661362 54.1190387,32 52.3546388,32 L30.971173,32 C28.7815535,32 27,33.7269429 27,35.8494651 L27,63.1505349 C27,65.2731869 28.7814194,67 30.971173,67 L60.028827,67 C62.2185806,67 64,65.2730571 64,63.1505349 L64,43.2901718 C64,41.5801062 63.3130553,39.9720837 62.065673,38.7626265 L62.065673,38.7626265 Z M56.5032434,65.0527427 L34.4191637,65.0527427 L34.4191637,55.5504021 C34.4191637,55.1071768 34.7913146,54.7465207 35.248831,54.7465207 L55.6734421,54.7465207 C56.1309585,54.7465207 56.5032434,55.1071768 56.5032434,55.5504021 L56.5032434,65.0527427 L56.5032434,65.0527427 Z M61.9898223,63.1506647 C61.9898223,64.1995274 61.1101686,65.0527427 60.028827,65.0527427 L58.5134211,65.0527427 L58.5134211,55.5504021 C58.5134211,54.0332577 57.2393705,52.7991335 55.6735761,52.7991335 L35.248965,52.7991335 C33.6830366,52.7991335 32.40912,54.0333875 32.40912,55.5504021 L32.40912,65.0527427 L30.971307,65.0527427 C29.8900994,65.0527427 29.0103117,64.1995274 29.0103117,63.1506647 L29.0103117,35.8495949 C29.0103117,34.8007322 29.8899654,33.947517 30.971307,33.947517 L52.3546388,33.947517 C53.5817853,33.947517 54.7357612,34.4108653 55.6034879,35.2522664 L60.6436734,40.1391696 C61.5118021,40.9808303 61.9898223,42.1000586 61.9898223,43.2903016 L61.9898223,63.1506647 Z" id="Shape"></path>
                        <path d="M49.2820314,36 L35.7179686,36 C34.2192445,36 33,37.2420632 33,38.7685454 L33,43.2314546 C33,44.7580675 34.2193727,46 35.7179686,46 L49.2820314,46 C50.7807555,46 52,44.7579368 52,43.2314546 L52,38.7685454 C52,37.2420632 50.7806273,36 49.2820314,36 Z M50.0760922,43.2315853 C50.0760922,43.6776149 49.7199128,44.0404223 49.2820314,44.0404223 L35.7179686,44.0404223 C35.2800872,44.0404223 34.9239078,43.6776149 34.9239078,43.2315853 L34.9239078,38.768676 C34.9239078,38.3226464 35.2800872,37.959839 35.7179686,37.959839 L49.2820314,37.959839 C49.7199128,37.959839 50.0760922,38.3226464 50.0760922,38.768676 L50.0760922,43.2315853 Z" id="Shape"></path>
                        <path d="M24.1913477,65.0369823 L4.51887687,65.0369823 C3.12728679,65.0369823 1.99520658,63.9231095 1.99520658,62.5540614 L1.99520658,4.44580772 C1.99520658,3.07675962 3.12728679,1.96288679 4.51887687,1.96288679 L36.4754356,1.96288679 L36.4754356,13.6416706 C36.4754356,15.6261492 38.1165595,17.240689 40.1337133,17.240689 L52.0047934,17.240689 L52.0047934,28.1946442 C52.0047934,28.7367935 52.4513207,29.1760875 53.0023967,29.1760875 C53.5534728,29.1760875 54,28.7367935 54,28.1946442 L54,16.2592456 C54,15.9989668 53.8949191,15.7494185 53.7079018,15.5651688 L38.1785439,0.287366626 C37.9913935,0.103378704 37.7376032,0 37.4730388,0 L4.51887687,0 C2.02712988,0 0,1.99429298 0,4.44580772 L0,62.5541923 C0,65.0055762 2.02712988,67 4.51887687,67 L24.1913477,67 C24.7422907,67 25.188951,66.5607059 25.188951,66.0185566 C25.188951,65.4764073 24.7422907,65.0369823 24.1913477,65.0369823 Z M38.4706421,13.6416706 L38.4706421,3.35077861 L50.5940494,15.2778022 L40.1337133,15.2778022 C39.2167164,15.2778022 38.4706421,14.5439443 38.4706421,13.6416706 Z" id="Shape"></path>
                    </g>
                </g>
            </g>
        </g>
    </g>
</svg>