<?xml version="1.0" encoding="UTF-8"?>
<svg width="164px" height="39px" viewBox="0 0 164 39" version="1.1" xmlns="http://www.w3.org/2000/svg" xmlns:xlink="http://www.w3.org/1999/xlink">
    <!-- Generator: Sketch 62 (91390) - https://sketch.com -->
    <title>Shape Copy 3</title>
    <desc>Created with Sketch.</desc>
    <defs>
        <circle id="path-1" cx="19.5" cy="19.5" r="19.5"></circle>
        <filter x="-2.6%" y="-2.6%" width="105.1%" height="105.1%" filterUnits="objectBoundingBox" id="filter-2">
            <feGaussianBlur stdDeviation="1" in="SourceAlpha" result="shadowBlurInner1"></feGaussianBlur>
            <feOffset dx="0" dy="0" in="shadowBlurInner1" result="shadowOffsetInner1"></feOffset>
            <feComposite in="shadowOffsetInner1" in2="SourceAlpha" operator="arithmetic" k2="-1" k3="1" result="shadowInnerInner1"></feComposite>
            <feColorMatrix values="0 0 0 0 0   0 0 0 0 0   0 0 0 0 0  0 0 0 0.313920455 0" type="matrix" in="shadowInnerInner1"></feColorMatrix>
        </filter>
    </defs>
    <g id="Page-1" stroke="none" stroke-width="1" fill="none" fill-rule="evenodd">
        <g id="Group-8" transform="translate(-681.000000, -67.000000)">
            <g id="overview" transform="translate(153.000000, 27.000000)">
                <g id="Shape-Copy-3" transform="translate(528.000000, 40.000000)">
                    <text id="Ultimate-Post-Copy" font-family="Avenir-Heavy, Avenir" font-size="20" font-weight="600" letter-spacing="-0.909090909" fill="#000000">
                        <tspan x="51" y="26">Ultimate</tspan>
                        <tspan x="123.787273" y="26" font-family="Avenir-Book, Avenir" font-weight="normal"> </tspan>
                        <tspan x="128.438182" y="26" font-family="Avenir-Light, Avenir" font-weight="300">Post</tspan>
                    </text>
                    <g id="Oval">
                        <use fill="#1740F5" fill-rule="evenodd" xlink:href="#path-1"></use>
                        <use fill="black" fill-opacity="1" filter="url(#filter-2)" xlink:href="#path-1"></use>
                    </g>
                    <path d="M31,26.5 C31,26.7761719 30.6107337,27 30.1304348,27 L19.8695652,27 C19.3892663,27 19,26.7761719 19,26.5 C19,26.2238281 19.3892663,26 19.8695652,26 L30.1304348,26 C30.6107337,26 31,26.2238281 31,26.5 Z" id="Path" fill="#FFFFFF" fill-rule="nonzero"></path>
                    <path d="M30.1891838,22 L23.8108162,22 C23.3629669,22 23,22.2239258 23,22.5 C23,22.7761719 23.3629669,23 23.8108162,23 L30.1891838,23 C30.6370331,23 31,22.7761719 31,22.5 C31,22.2239258 30.6370331,22 30.1891838,22 Z" id="Path" fill="#FFFFFF" fill-rule="nonzero"></path>
                    <path d="M30.3258501,18 L27.6741499,18 C27.3017874,18 27,18.2238281 27,18.5 C27,18.7761719 27.3017874,19 27.6741499,19 L30.3258501,19 C30.6982126,19 31,18.7761719 31,18.5 C31,18.2238281 30.6982126,18 30.3258501,18 Z" id="Path" fill="#FFFFFF" fill-rule="nonzero"></path>
                    <g id="Group-7" transform="translate(8.000000, 8.000000)" fill-rule="nonzero" stroke="#FFFFFF" stroke-width="1.3">
                        <path d="M19.2981541,6.38674761 L6.26441291,19.4204401 C6.1263437,19.5586528 5.93902156,19.6359881 5.74359413,19.6359881 L1.3964135,19.6333576 C0.98944095,19.6331114 0.659405934,19.303073 0.659162506,18.8960992 L0.656562131,14.5489047 C0.656562131,14.3534766 0.733899856,14.1661544 0.872113047,14.0280858 L13.9058542,0.994393257 C14.1933547,0.706749886 14.6599052,0.70703218 14.94775,0.995023673 L19.2975309,5.34484851 C19.5855195,5.63269619 19.5857985,6.09924823 19.2981541,6.38674761 Z" id="Path" transform="translate(10.085134, 10.207417) rotate(-4.000000) translate(-10.085134, -10.207417) "></path>
                    </g>
                </g>
            </g>
        </g>
    </g>
</svg>